<?xml version="1.0" encoding="iso-8859-1"?>
<!-- Generator: Adobe Illustrator 19.0.0, SVG Export Plug-In . SVG Version: 6.00 Build 0)  -->
<svg version="1.1" id="Capa_1" xmlns="http://www.w3.org/2000/svg" xmlns:xlink="http://www.w3.org/1999/xlink" x="0px" y="0px"
	 viewBox="0 0 512.1 512.1" style="enable-background:new 0 0 512.1 512.1;" xml:space="preserve">
<rect x="188.5" y="409.65" style="fill:#A4C2F7;" width="136.5" height="85.3"/>
<rect x="187.7" y="409.65" style="fill:#E3E7F2;" width="110.9" height="85.3"/>
<g>
	<path style="fill:#A4C2F7;" d="M504.2,42.75v349.9H9.3V42.75c0-9.1,3.6-17.7,10-24.1s15.1-10,24.1-10h426.7c9.1,0,17.7,3.6,24.1,10
		S504.2,33.65,504.2,42.75z"/>
	<path style="fill:#A4C2F7;" d="M503.5,365.15v36c0.5,19.4-14.8,35.5-34.1,36H42.7c-19.4-0.5-34.6-16.6-34.1-36v-36H503.5z"/>
</g>
<linearGradient id="SVGID_1_" gradientUnits="userSpaceOnUse" x1="-97.7365" y1="0.7527" x2="-96.8485" y2="1.8427" gradientTransform="matrix(469.3565 0 0 384 45908.1914 -288.5984)">
	<stop  offset="0" style="stop-color:#D4E1F4"/>
	<stop  offset="0.172" style="stop-color:#D4E1F4"/>
	<stop  offset="0.2" style="stop-color:#D4E1F4"/>
	<stop  offset="0.2" style="stop-color:#DAE4F4"/>
	<stop  offset="0.201" style="stop-color:#EBEBF4"/>
	<stop  offset="0.201" style="stop-color:#F6F1F4"/>
	<stop  offset="0.202" style="stop-color:#FDF4F4"/>
	<stop  offset="0.205" style="stop-color:#FFF5F4"/>
	<stop  offset="0.252" style="stop-color:#FFF5F4"/>
	<stop  offset="0.26" style="stop-color:#FFF5F4"/>
	<stop  offset="0.26" style="stop-color:#D4E1F4"/>
	<stop  offset="0.397" style="stop-color:#D4E1F4"/>
	<stop  offset="0.42" style="stop-color:#D4E1F4"/>
	<stop  offset="0.42" style="stop-color:#DAE4F4"/>
	<stop  offset="0.421" style="stop-color:#EBEBF4"/>
	<stop  offset="0.421" style="stop-color:#F6F1F4"/>
	<stop  offset="0.422" style="stop-color:#FDF4F4"/>
	<stop  offset="0.425" style="stop-color:#FFF5F4"/>
	<stop  offset="0.489" style="stop-color:#FFF5F4"/>
	<stop  offset="0.5" style="stop-color:#FFF5F4"/>
	<stop  offset="0.5" style="stop-color:#F9F2F4"/>
	<stop  offset="0.5" style="stop-color:#E8EBF4"/>
	<stop  offset="0.5" style="stop-color:#DDE5F4"/>
	<stop  offset="0.5" style="stop-color:#D6E2F4"/>
	<stop  offset="0.501" style="stop-color:#D4E1F4"/>
	<stop  offset="0.706" style="stop-color:#D4E1F4"/>
	<stop  offset="0.74" style="stop-color:#D4E1F4"/>
	<stop  offset="0.741" style="stop-color:#FFF5F4"/>
	<stop  offset="0.835" style="stop-color:#FFF5F4"/>
	<stop  offset="0.85" style="stop-color:#FFF5F4"/>
	<stop  offset="0.851" style="stop-color:#D4E1F4"/>
</linearGradient>
<path style="fill:url(#SVGID_1_);" d="M478.6,42.75v349.9H9.3V42.75c-0.5-18.4,14-33.7,32.3-34.2h404.6
	C464.6,9.05,479.1,24.35,478.6,42.75z"/>
<path style="fill:#E3E7F2;" d="M477.9,366.95v34.1c0.5,18.4-14,33.6-32.4,34.1H40.9c-18.4-0.5-32.8-15.8-32.4-34.1v-34.1H477.9z"/>
<rect x="120.2" y="469.35" style="fill:#A4C2F7;" width="273.1" height="34.1"/>
<rect x="119.5" y="469.35" style="fill:#E3E7F2;" width="247.5" height="34.1"/>
<path style="fill:#A4C2F7;" d="M351,366.95v-45.3c-8.4,6.3-18.7,9.7-29.2,9.6h-14.4c-10.8,0.1-21.5-2.6-31.1-7.8l-23.4-12.6v56.1"/>
<g>
	<path style="fill:#E3E7F2;" d="M164.5,366.95l4.7-54.5l0.7-8.4l-7.4-10l-60.5-81.9c-4.7-6.1-5.1-14.4-1.2-20.9l42.5-71.8
		c7.4-11.5,21.4-16.9,34.6-13.4c0.2,0,0.4,0.1,0.6,0.2l58.9,15.5l26,7c4.4,0.8,8.1,3.8,9.8,8c1.7,4.2,1.1,8.9-1.5,12.6l-7.8,10.6
		c-7.2,9.2-19,13.7-30.5,11.7l-32.9-5.4l-0.3,1.8l47,42.4c3.8,3.4,6.9,7.5,9.2,12.1l0.4-0.1l14.1-25.5l22.6,13.6
		c5.4,3.2,11.7,4.2,17.8,2.8l28.3,18.2c10.4,6.3,23.9,3.8,31.4-5.7l17.7-23.8l-22.6,96.9c-2.2,9.1-7.6,17.1-15.1,22.7
		c-8.4,6.3-18.7,9.7-29.2,9.6h-14.4c-10.8,0.1-21.5-2.6-31.1-7.8l-23.4-12.6v56.1"/>
	<path style="fill:#E3E7F2;" d="M261.8,71.75l-23,46.7l-0.1,0.1l-0.9,1.8l-0.5,1.4l-58.9-15.6c-0.2-0.1-0.4-0.1-0.6-0.1l31-55.9
		c4-6.6,12.2-9.3,19.4-6.5l25.7,9.9c3.6,1.2,6.5,3.8,8,7.3C263.4,64.45,263.4,68.35,261.8,71.75z"/>
	<path style="fill:#E3E7F2;" d="M329.8,90.65l-6.3,11.5l-30.3,54.6l-22.3,40.2l-14.1,25.5l-0.4,0.1c-2.3-4.6-5.4-8.7-9.2-12.1
		l-47.1-42.4l0.4-1.8l32.9,5.4c11.6,2.1,23.3-2.4,30.6-11.7l7.8-10.5c2.6-3.7,3.2-8.4,1.5-12.6c-1.7-4.2-5.4-7.2-9.8-8l-26-6.9
		l0.5-1.4l0.9-1.8l0.1-0.1l29.7-58.8c2.1-3.7,5.6-6.4,9.6-7.5c4.1-1.1,8.4-0.6,12.1,1.6l33.9,19.1c3.1,1.6,5.4,4.3,6.5,7.7
		C331.8,84.05,331.4,87.65,329.8,90.65z"/>
	<path style="fill:#E3E7F2;" d="M375.3,128.55c-0.4,0.9-0.8,1.8-1.4,2.7l-48.5,72.9c-3.3,4.9-8.4,8.2-14.2,9.3
		c-6.1,1.3-12.4,0.3-17.8-2.9l-22.6-13.6l22.3-40.2l30.3-54.6c2.3-3.6,5.9-6.1,10-6.9c4.1-0.9,8.5-0.1,12,2.2l24.4,15.7
		C375.1,116.25,377.4,122.75,375.3,128.55z"/>
	<path style="fill:#E3E7F2;" d="M411.3,171.45l-22.6,30.6l-17.7,23.8c-7.5,9.5-21,12-31.4,5.7l-28.4-18.2c5.8-1.1,10.9-4.5,14.2-9.3
		l48.5-72.9c0.5-0.8,1-1.7,1.4-2.7l33.1,24.9c2.8,2,4.7,5,5.2,8.4C414.2,165.25,413.4,168.65,411.3,171.45z"/>
</g>
<g>
	<path style="fill:#FFFFFF;" d="M67.6,434.85H42c-18.3-0.5-32.8-15.8-32.3-34.1v-8.5H8.9V42.35c-0.5-18.4,14-33.6,32.4-34.1h25.4
		c-18.3,0.6-32.7,15.8-32.2,34.1v349.9h0.8v8.5c-0.2,8.8,3,17.4,9.1,23.8S58.8,434.65,67.6,434.85z"/>
	<rect x="119.9" y="469.05" style="fill:#FFFFFF;" width="25.5" height="34.1"/>
	<rect x="188.2" y="434.85" style="fill:#FFFFFF;" width="25.5" height="34.1"/>
	<polygon style="fill:#FFFFFF;" points="17.1,42.75 17.1,153.65 17.1,366.95 0,366.95 0,153.65 0,42.75 	"/>
</g>
<path style="fill:#E3E7F2;" d="M385.6,136.15l-10.3-7.7c0.2-0.5,0.4-1,0.5-1.6l6.3,5.2C383.5,133.25,384.7,134.65,385.6,136.15z"/>
<g>
	<path style="fill:#428DFF;" d="M8.5,119.55c2.3,0,4.4-0.9,6.1-2.5c3.3-3.4,3.3-8.8,0-12.1l-1.3-1c-0.5-0.3-1-0.6-1.5-0.8
		c-0.5-0.2-1-0.4-1.5-0.5c-0.6-0.1-1.1-0.2-1.7-0.2c-2.3,0-4.4,0.9-6.1,2.5c-3.2,3.4-3.2,8.7,0,12.1c0.8,0.8,1.8,1.4,2.8,1.8
		C6.3,119.25,7.4,119.55,8.5,119.55z"/>
	<path style="fill:#428DFF;" d="M469.3,0.05H42.7C19.1,0.05,0,19.15,0,42.75v34.1c0,4.7,3.8,8.5,8.5,8.5s8.5-3.8,8.5-8.5v-34.1
		c0-14.1,11.5-25.6,25.6-25.6h426.7c14.1,0,25.6,11.5,25.6,25.6v315.7H359.5v-33c7.3-6.5,12.5-15,14.9-24.5l22.2-95.2l21.6-29.2l0,0
		c3.4-4.6,4.8-10.3,3.9-15.9c-0.9-5.6-3.9-10.6-8.5-14l-28.9-21.8c0.2-7.6-3.7-14.8-10.2-18.9l-24.4-15.7c-3.1-1.9-6.6-3.2-10.3-3.6
		c0.8-8.6-3.7-16.9-11.3-21l-34.1-19.3c-5.9-3.3-13-4.1-19.5-2.1c-3.9,1.2-7.4,3.4-10.2,6.3c-2.2-2.1-4.8-3.7-7.6-4.8l-25.8-9.9
		c-11.1-4.4-23.9-0.1-29.9,10.3l-28.1,50.6c-14.9-1.5-29.4,5.7-37.3,18.4l-42.5,71.8c-5.7,9.5-5.1,21.5,1.7,30.3l66,89.3l-4.4,51.9
		H17.1v-213.3c0-4.7-3.8-8.5-8.5-8.5s-8.6,3.8-8.6,8.5v256c0,23.6,19.1,42.6,42.7,42.7h136.5v17.1h-59.7c-2.3,0-4.4,0.9-6,2.5
		s-2.5,3.8-2.5,6v34.1c0,2.3,0.9,4.4,2.5,6s3.8,2.5,6,2.5h273.1c2.3,0,4.4-0.9,6-2.5s2.5-3.8,2.5-6v-34.1c0-2.3-0.9-4.4-2.5-6
		s-3.8-2.5-6-2.5h-59.7v-17.1h136.5c23.6,0,42.6-19.1,42.7-42.7V42.75C512,19.15,492.9,0.05,469.3,0.05z M261.5,358.45v-33.2
		l10.7,5.8c10.8,5.9,22.9,8.9,35.2,8.8h14.4c2.9,0,5.7-0.2,8.5-0.7c0.4-0.1,0.8-0.1,1.2-0.2c2.7-0.5,5.3-1.1,7.9-1.9
		c0.4-0.1,0.9-0.3,1.3-0.4c0.6-0.2,1.2-0.4,1.7-0.6v22.4L261.5,358.45L261.5,358.45z M404.4,166.35l-26.3,35.7l-13.9,18.7
		c-4.9,5.9-13.3,7.5-19.9,3.6l-16.2-10.3c0.1-0.1,0.2-0.2,0.3-0.3c1.6-1.5,3-3.1,4.2-4.9l45.1-67.9l25.6,19.3c1,0.6,1.7,1.7,1.9,2.8
		C405.5,164.25,405.2,165.45,404.4,166.35z M365.2,120.35c1.8,1,2.7,3,2.2,5c-0.2,0.4-0.3,0.8-0.5,1.1l-48.5,73
		c-2.1,3-5.3,5-8.8,5.7h-0.1c-1.9,0.4-3.9,0.5-5.8,0.2h-0.1c-0.7-0.1-1.5-0.3-2.2-0.6c-0.2-0.1-0.5-0.1-0.7-0.2
		c-0.2-0.1-0.3-0.1-0.4-0.2c-0.8-0.3-1.5-0.7-2.3-1.1l-15.6-9.3l21.9-39.4l26.6-48c0.9-1.4,2.4-2.4,4-2.8c2-0.5,4.2-0.2,6,0.9
		L365.2,120.35z M276.1,63.55c0.8-1.4,2.2-2.5,3.8-2.9c2-0.6,4.3-0.4,6.1,0.6l34.1,19.3c1.1,0.5,2,1.4,2.4,2.6
		c0.4,1.1,0.3,2.4-0.2,3.5l-41.9,75.6l-17,30.6v0.1l-7.7,13.9c-0.9-0.9-1.8-1.8-2.8-2.7l-28-25.2l7.1,1.2
		c14.7,2.5,29.7-3.2,38.8-15.1l7.7-10.6c3.1-4.1,4.6-9.3,4.1-14.5c-0.2-1.7-0.5-3.4-1.1-5.1c-2.6-7.1-8.6-12.5-16-14.4l-16.1-4.3
		l0.3-0.6L276.1,63.55z M216.3,54.35c2-2.8,5.6-3.9,8.8-2.6l25.7,9.9c1.5,0.5,2.8,1.7,3.4,3.2c0.4,1,0.4,2.2-0.1,3.2l-21.5,43.8
		l-42-11.1L216.3,54.35z M177.6,313.95l36.3,5.5c0.4,0.1,0.9,0.1,1.3,0.1c4.5,0,8.2-3.5,8.5-7.9c0.3-4.5-2.8-8.4-7.2-9.1l-41.7-6.3
		l-66-89.2c-2.6-3.3-2.9-7.9-0.7-11.4l42.5-71.7c5.5-8.2,15.6-12.1,25.1-9.5l0,0c0.2,0.1,0.3,0.1,0.5,0.1l84.9,22.5
		c1.9,0.4,3.5,1.7,4.3,3.5c0.1,0.5,0.2,1,0.1,1.4c0,0.8-0.3,1.6-0.8,2.3l-7.8,10.5c-1.2,1.6-2.7,3.1-4.3,4.3
		c-4.6,3.2-10.2,4.7-15.8,4.2c-0.8-0.1-1.5,0-2.3-0.1l-32.9-5.4l0,0l-30.5-5c-2.2-0.4-4.5,0.1-6.4,1.4c-1.8,1.3-3.1,3.3-3.4,5.6
		c-0.8,4.7,2.4,9,7,9.8l9.7,1.6l-5.1,3.1c-4,2.4-5.3,7.7-2.9,11.7c2.4,4,7.7,5.3,11.7,2.9l17.2-10.4l42.3,38.2
		c2.3,2.1,4.3,4.6,5.9,7.2c0.5,0.8,1,1.5,1.4,2.3l0.1,0.1v0.1c2.1,4,3.1,8.4,3.1,12.9v30.7c0,4.7,3.8,8.5,8.5,8.5
		c4.7,0,8.5-3.8,8.5-8.5v-30.7c0-5.5-1-10.9-2.9-16l8-14.5l15.1,9.1c0.1,0.1,0.2,0.1,0.4,0.2c1.3,0.8,2.7,1.4,4.2,2
		c0.4,0.1,0.7,0.2,1.1,0.4c1.2,0.4,2.5,0.8,3.7,1.1c0.4,0.1,0.8,0.2,1.2,0.3c1.3,0.2,2.5,0.4,3.8,0.5c0.4,0,0.8,0.1,1.1,0.1
		c0.4,0,0.9,0.1,1.3,0.1c0.5,0,1-0.1,1.4-0.2c0.7,0,1.3,0,2-0.1l25.9,16.6c5.1,3.1,11,4.7,17,4.7c0.5,0,1-0.1,1.5-0.2
		c0.7,0,1.4-0.2,2.1-0.2c2.1-0.2,4.2-0.7,6.3-1.3c0.8-0.2,1.5-0.5,2.3-0.8c1.1-0.4,2.1-0.9,3.1-1.4c1.5-0.8,2.9-1.7,4.3-2.7l-14,60
		c-1.8,7.2-6,13.5-12,17.9c-6.9,5.2-15.4,7.9-24,7.9h-14.4c-9.4,0.1-18.7-2.3-27-6.7l-23.2-12.6c-2.6-1.4-5.8-1.4-8.4,0.2
		c-2.6,1.5-4.2,4.3-4.2,7.3v47.5h-70.6L177.6,313.95z M384,494.95H128v-17.1h256V494.95z M315.7,460.85H196.3v-17.1h119.5v17.1
		H315.7z M469.3,426.75H42.7c-14.1,0-25.6-11.5-25.6-25.6v-25.6H495v25.6C494.9,415.25,483.5,426.75,469.3,426.75z"/>
</g>
<g>
</g>
<g>
</g>
<g>
</g>
<g>
</g>
<g>
</g>
<g>
</g>
<g>
</g>
<g>
</g>
<g>
</g>
<g>
</g>
<g>
</g>
<g>
</g>
<g>
</g>
<g>
</g>
<g>
</g>
</svg>
